<svg version="1.1" xmlns="http://www.w3.org/2000/svg" style="display: block;" viewBox="0 0 1714 2048" width="702" height="839" preserveAspectRatio="none">
<defs>
	<linearGradient id="Gradient1" gradientUnits="userSpaceOnUse" x1="-119.68" y1="1852.54" x2="289.792" y2="1442.5">
		<stop class="stop0" offset="0" stop-opacity="1" stop-color="rgb(42,57,16)"/>
		<stop class="stop1" offset="1" stop-opacity="1" stop-color="rgb(67,91,26)"/>
	</linearGradient>
	<linearGradient id="Gradient2" gradientUnits="userSpaceOnUse" x1="313.711" y1="1518.47" x2="1546.24" y2="291.496">
		<stop class="stop0" offset="0" stop-opacity="1" stop-color="rgb(65,89,26)"/>
		<stop class="stop1" offset="1" stop-opacity="1" stop-color="rgb(141,193,56)"/>
	</linearGradient>
</defs>
<path transform="translate(0,0)" fill="url(#Gradient2)" d="M 2.06562 1140.84 C 0.23858 1077.91 1.82919 1008.21 1.8362 944.582 L 1.83899 568.368 L 1.82737 379.22 C 1.80754 343.314 0.325547 280.339 6.46379 246.86 C 16.631 199.58 36.9285 150.263 70.9137 115.416 C 106.262 79.1702 147.132 43.4208 195.709 27.2481 C 242.963 11.5158 291.918 4.14405 341.335 2.70551 C 389.453 1.70463 437.584 1.42323 485.71 1.8614 L 707.609 1.86466 L 895.911 1.88093 C 941.64 1.87801 990.716 0.999866 1036.15 5.5803 C 1064.68 8.45739 1104.34 15.6681 1131.54 24.2484 C 1215.09 50.609 1299.88 80.8647 1372.17 131.627 C 1393.29 146.458 1413.69 159.924 1432.95 177.011 C 1486.21 223.121 1530.47 277.469 1567.86 337.061 C 1576.5 350.832 1582.89 366.143 1590.63 380.412 C 1607.41 410.262 1621.67 438.614 1634.7 470.256 C 1643.45 491.505 1646.33 506.997 1651.68 528.68 C 1661.96 570.334 1669.17 610.383 1669.59 653.52 C 1669.61 682.129 1670.67 711.465 1669.91 740.02 C 1669 774.264 1671.08 812.233 1665.05 845.911 C 1658.63 881.737 1644.45 919.193 1633.67 953.949 C 1629.86 966.236 1627.22 978.443 1621.69 990.128 C 1609.93 1016.49 1594.35 1041.21 1580.05 1065.96 C 1561.19 1098.58 1549.94 1121.68 1523.81 1149.58 C 1521.47 1152.07 1519.03 1154.46 1516.5 1156.76 C 1561.33 1191.91 1597.21 1223.76 1629.23 1271.33 C 1646.41 1296.85 1666.51 1320.56 1677.8 1350.3 C 1691.18 1385.45 1703.62 1425.03 1708.11 1462.3 C 1709.47 1474.19 1710.5 1486.12 1711.18 1498.07 C 1711.58 1505.15 1712.22 1522.73 1714 1529.16 L 1714 1589.88 C 1710.96 1603.84 1712.05 1618.18 1710.77 1632.32 C 1708.68 1655.34 1704.84 1678.17 1700.44 1700.84 C 1693.13 1739.73 1680.71 1764.67 1662.14 1798.56 C 1625.08 1866.22 1571.27 1921.31 1507.17 1963.74 C 1469.79 1988.48 1442.5 2002.86 1399.93 2017.87 C 1378.99 2025.26 1360.97 2033.27 1338.24 2037.33 C 1317 2041.13 1295.01 2042.86 1273.46 2043.9 C 1263.19 2044.39 1244.52 2045.67 1235.09 2045.13 C 1225.16 2046.61 1194.75 2046 1183.41 2046.01 L 1079.08 2046.03 L 722.278 2045.99 C 679.898 2045.85 654.129 2044.6 620.657 2012.55 C 611.876 2004.14 597.843 1982.73 594.979 1971.33 C 592.806 1959.17 586.47 1940.66 586.418 1928.66 C 586.116 1859.77 585.39 1790.23 586.185 1721.38 C 584.482 1653.38 586.657 1584.4 586.048 1515.88 C 586.293 1429.73 585.52 1343.8 586.371 1257.63 C 585.118 1231.69 605.286 1196.19 630.651 1187.32 C 653.87 1179.19 692.092 1182.45 718.252 1180.24 C 754.697 1177.16 793.657 1177.95 830.502 1177.26 L 928.784 1174.57 C 957.881 1173.85 1000.76 1174.27 1028.33 1169.87 C 1079.81 1161.64 1145.04 1135.74 1190.35 1110.85 C 1211.78 1099.08 1250.45 1066.98 1267.27 1049.67 C 1292.82 1023.39 1328.64 986.552 1347.55 955.545 C 1374.01 911.673 1388.46 863.967 1398.54 814.236 C 1405.6 779.379 1407.78 759.232 1407.7 723.912 C 1407.21 485.002 1213.98 294.224 979.984 272.475 C 939.813 268.741 899.677 269.05 859.366 268.142 C 754.461 267.645 649.696 267.936 544.87 267.95 L 451.143 267.976 C 427.472 268.005 405.497 267.492 381.983 270.946 C 329.618 278.639 299.205 326.881 294.526 376.486 C 290.191 422.447 290.421 469.223 290.299 515.294 L 290.261 729.089 L 290.149 1465.65 C 291.422 1495.35 290.251 1534.53 290.251 1564.77 L 290.263 1763 L 290.269 1920.53 C 290.269 1946.54 291.366 1982.08 289.611 2007.15 C 255.496 2063.05 191.444 2042.02 136.418 2045.96 C 79.858 2048.45 25.611 2022.06 8.66168 1965.07 C -1.93032 1929.45 1.85727 1888.37 1.87739 1851.46 L 1.86817 1671.66 L 1.82769 1324.54 C 1.81892 1265.11 0.49357 1199.9 2.06562 1140.84 z M 1030.5 1785.83 C 1084.08 1786.14 1137.66 1785.91 1191.23 1785.14 C 1211.97 1784.76 1253.08 1785.1 1271.78 1780.17 C 1314.23 1769 1362.82 1740.64 1393.25 1708.89 C 1440.78 1659.3 1460.26 1578.21 1442.85 1512.02 C 1430.6 1465.43 1412.69 1434.72 1378.53 1401.09 C 1353.21 1376.54 1319.27 1362.89 1284 1363.06 C 1280.97 1363.11 1277.94 1363.23 1274.91 1363.42 C 1242.18 1366.15 1207.83 1377.88 1175.44 1384.18 C 1163.2 1387.46 1150.81 1392.52 1138.51 1395.39 C 1055.6 1414.73 967.489 1406.99 883.063 1415.23 C 850.675 1418.4 856.526 1456.2 855.782 1480.78 C 854.813 1515.57 854.397 1550.36 854.533 1585.16 C 854.256 1625.42 854.547 1665.69 855.404 1705.95 C 855.91 1726 852.587 1764.27 868.684 1776.61 C 881.705 1786.59 919.709 1784.85 935.996 1785.11 C 967.494 1785.69 998.997 1785.93 1030.5 1785.83 z"/>
<path transform="translate(0,0)" fill="url(#Gradient1)" d="M 2.06562 1140.84 C 6.04162 1148.24 2.39363 1176.71 11.7202 1189.94 L 15.7512 1189.53 C 16.7511 1193.29 16.1032 1193.33 18.4952 1195.45 L 24.6609 1192.65 C 48.0831 1201.99 65.1968 1229.14 71.6773 1231.69 L 72.7497 1231.03 L 73.4534 1232.93 L 75.4015 1231.52 L 75.6585 1232.73 C 77.9049 1232.39 76.8358 1232.8 78.6293 1230.81 C 79.8175 1233.26 79.5616 1233.6 79.3851 1236.29 C 83.5753 1241.89 93.9635 1257.57 97.7768 1261.49 L 99.1862 1260.36 L 100.431 1261.22 C 100.603 1263.73 99.5559 1264.8 98.1858 1266.95 L 98.9651 1268.12 C 102.666 1268.67 104.974 1267.77 108.59 1266.87 C 112.936 1277.16 115.302 1274.7 122.11 1281.84 C 138.581 1299.11 154.28 1315.44 169.541 1333.78 L 171.484 1332.71 C 176.073 1337.57 180.275 1343.29 184.376 1348.62 L 186.475 1347.61 C 197.689 1360.64 208.797 1373.37 222.325 1383.97 C 226.913 1387.56 221.207 1389.49 231.509 1392.48 C 234.063 1396.46 228.481 1395.21 238.187 1400.67 C 241.262 1402.4 242.124 1403.84 243.929 1406.76 L 243.93 1408.93 L 246.721 1409.3 C 247.79 1412.6 255.81 1421.52 258.578 1425.24 C 267.347 1437.05 271.024 1454.03 281.993 1463.31 L 284 1475.39 L 285.303 1475.68 L 286.664 1474.27 C 286.241 1469.39 285.471 1469.03 287.33 1464.86 C 288.517 1465.13 289.013 1465.28 290.149 1465.65 C 291.422 1495.35 290.251 1534.53 290.251 1564.77 L 290.263 1763 L 290.269 1920.53 C 290.269 1946.54 291.366 1982.08 289.611 2007.15 C 255.496 2063.05 191.444 2042.02 136.418 2045.96 C 79.858 2048.45 25.611 2022.06 8.66168 1965.07 C -1.93032 1929.45 1.85727 1888.37 1.87739 1851.46 L 1.86817 1671.66 L 1.82769 1324.54 C 1.81892 1265.11 0.49357 1199.9 2.06562 1140.84 z"/>
<path transform="translate(0,0)" fill="rgb(63,87,25)" d="M 586.185 1721.38 C 589.369 1731.1 587.201 1791.65 587.49 1806.16 C 591.248 1793.28 584.326 1796.57 596.562 1785.86 C 600.619 1786.33 599.116 1786.67 602.739 1788.9 C 602.741 1788.91 608.783 1788.7 609.203 1788.68 C 610.057 1789.11 610.911 1789.54 611.766 1789.97 C 612.229 1789.7 612.692 1789.42 613.156 1789.15 L 614.253 1791.33 L 616.211 1786.85 C 628.157 1787.93 648.021 1812.5 657.056 1821.5 L 737.209 1901.87 C 754.519 1919.26 771.791 1936.39 789.194 1953.96 C 803.189 1968.09 817.29 1980.63 831.121 1995.82 C 841.808 2007.55 848.166 2022.86 858.597 2032.82 C 859.504 2033.69 873.43 2039.03 876.728 2040.69 C 872.227 2044.18 846.898 2042.72 841.584 2044.27 C 872.772 2045.55 909.877 2044.54 941.488 2044.57 L 1131.42 2044.76 L 1197.39 2044.71 C 1208.14 2044.68 1224.99 2044.17 1235.09 2045.13 C 1225.16 2046.61 1194.75 2046 1183.41 2046.01 L 1079.08 2046.03 L 722.278 2045.99 C 679.898 2045.85 654.129 2044.6 620.657 2012.55 C 611.876 2004.14 597.843 1982.73 594.979 1971.33 C 592.806 1959.17 586.47 1940.66 586.418 1928.66 C 586.116 1859.77 585.39 1790.23 586.185 1721.38 z"/>
<path transform="translate(0,0)" fill="rgb(103,141,40)" d="M 705.859 854.406 L 909.053 856.396 C 934.611 856.756 961.6 856.253 987.063 858.19 C 1003.64 859.452 1024.87 875.027 1033.3 889.479 C 1040.82 902.487 1042.86 917.946 1038.98 932.459 C 1031.06 961.589 986.387 986.238 961.163 1000.93 C 868.735 1049.63 773.259 1038.65 692.997 971.684 C 673.924 955.77 654.303 942.311 651.983 915.489 C 650.646 900.411 655.367 885.421 665.103 873.83 C 676.369 860.477 689.016 855.749 705.859 854.406 z"/>
<path transform="translate(0,0)" fill="rgb(103,141,40)" d="M 616.496 595.221 C 663.432 591.622 704.398 626.755 707.994 673.69 C 711.59 720.626 676.454 761.59 629.518 765.183 C 582.587 768.776 541.628 733.644 538.032 686.713 C 534.436 639.781 569.565 598.82 616.496 595.221 z"/>
<path transform="translate(0,0)" fill="rgb(103,141,40)" d="M 1068 594.208 C 1114.25 587.221 1157.41 619.058 1164.39 665.311 C 1171.36 711.564 1139.51 754.712 1093.26 761.677 C 1047.02 768.639 1003.89 736.805 996.917 690.568 C 989.943 644.33 1021.77 601.192 1068 594.208 z"/>
</svg>